<svg width="733" height="68" viewBox="0 0 733 68" fill="none" xmlns="http://www.w3.org/2000/svg">
<path d="M0 35.5H316.7" stroke="black" stroke-width="6"/>
<path d="M285.874 5C312.004 16.5 348.585 44.6 285.874 65" stroke="black" stroke-width="6"/>
<path d="M337.609 31.8594C337.703 31.3906 337.766 31.0156 337.797 30.7344C337.828 30.4219 337.719 30.0938 337.469 29.75C337.594 29.25 337.688 28.8594 337.75 28.5781C337.844 28.2969 337.859 27.9062 337.797 27.4062C338.078 26.5938 338.5 25.9062 339.062 25.3438C339.656 24.7812 340.297 24.3125 340.984 23.9375C341.672 23.5312 342.391 23.2031 343.141 22.9531C343.891 22.6719 344.594 22.4375 345.25 22.25C345.25 22.125 345.188 22.0625 345.062 22.0625C344.938 22.0625 344.906 21.9844 344.969 21.8281C346.656 21.5156 348.344 21.0625 350.031 20.4688C351.75 19.875 353.5 19.3438 355.281 18.875C357.062 18.4062 358.891 18.125 360.766 18.0312C362.641 17.9062 364.609 18.1406 366.672 18.7344C366.797 19.1094 366.969 19.4688 367.188 19.8125C367.406 20.1562 367.625 20.5 367.844 20.8438C368.094 21.1562 368.312 21.4688 368.5 21.7812C368.688 22.0938 368.797 22.4219 368.828 22.7656C369.203 23.1094 369.5 23.4844 369.719 23.8906C369.969 24.2656 370.016 24.7812 369.859 25.4375C369.516 25.6875 369.156 25.9375 368.781 26.1875C368.406 26.4375 368.016 26.6719 367.609 26.8906C366.203 26.5469 364.797 26.4219 363.391 26.5156C361.984 26.6094 360.719 26.7188 359.594 26.8438C359.25 26.4688 358.844 26.2969 358.375 26.3281C357.906 26.3281 357.406 26.4062 356.875 26.5625C356.375 26.6875 355.875 26.8281 355.375 26.9844C354.875 27.1094 354.406 27.1406 353.969 27.0781C353.625 27.3906 353.172 27.6094 352.609 27.7344C352.047 27.8281 351.453 27.9062 350.828 27.9688C350.797 28.125 350.828 28.2344 350.922 28.2969C351.016 28.3594 351.031 28.4844 350.969 28.6719C351.188 28.9531 351.484 29.1562 351.859 29.2812C352.234 29.375 352.609 29.4688 352.984 29.5625C353.391 29.6562 353.75 29.7969 354.062 29.9844C354.375 30.1406 354.578 30.4062 354.672 30.7812C355.234 30.8125 355.719 30.9688 356.125 31.25C356.531 31.5 356.875 31.8125 357.156 32.1875C357.438 32.5625 357.641 32.9688 357.766 33.4062C357.891 33.8125 357.938 34.1875 357.906 34.5312C358.031 34.8438 358.156 34.9688 358.281 34.9062C358.438 34.8438 358.609 34.9219 358.797 35.1406C358.922 35.6094 359.203 36.1094 359.641 36.6406C360.109 37.1406 360.469 37.6875 360.719 38.2812C360.781 39.2188 360.828 40.0625 360.859 40.8125C360.922 41.5625 360.797 42.2969 360.484 43.0156C359.953 44.3906 359.188 45.625 358.188 46.7188C357.188 47.8125 356.047 48.7812 354.766 49.625C353.516 50.4375 352.188 51.1562 350.781 51.7812C349.375 52.375 347.984 52.875 346.609 53.2812C346.484 53.25 346.328 53.25 346.141 53.2812C345.984 53.3125 345.953 53.2188 346.047 53C345.766 53.25 345.438 53.4062 345.062 53.4688C344.719 53.5312 344.328 53.5469 343.891 53.5156C343.484 53.5156 343.062 53.5 342.625 53.4688C342.219 53.4375 341.812 53.4531 341.406 53.5156C341.156 53.2656 340.922 53.0156 340.703 52.7656C340.516 52.5156 340.359 52.2188 340.234 51.875C340.078 51.8438 340 51.75 340 51.5938C340.031 51.4062 339.969 51.3125 339.812 51.3125C339.812 51.1875 339.828 51.0938 339.859 51.0312C339.891 50.9688 339.922 50.9062 339.953 50.8438C340.078 50.75 340.125 50.6875 340.094 50.6562C340.094 50.5938 340.047 50.5469 339.953 50.5156C339.891 50.4531 339.812 50.3906 339.719 50.3281C339.656 50.2656 339.641 50.1875 339.672 50.0938C339.828 49.8125 339.875 49.4844 339.812 49.1094C339.781 48.7031 339.75 48.2969 339.719 47.8906C339.688 47.4844 339.719 47.1094 339.812 46.7656C339.906 46.3906 340.172 46.0781 340.609 45.8281C341.891 45.9531 343.094 45.8906 344.219 45.6406C345.375 45.3906 346.453 45.0469 347.453 44.6094C348.484 44.1719 349.453 43.7031 350.359 43.2031C351.297 42.6719 352.203 42.1875 353.078 41.75C353.172 41.4375 353.312 41.1719 353.5 40.9531C353.719 40.7344 353.938 40.5312 354.156 40.3438C354.375 40.125 354.578 39.9062 354.766 39.6875C354.953 39.4375 355.094 39.1406 355.188 38.7969C355.219 38.6719 355.219 38.5781 355.188 38.5156C355.156 38.4531 355.109 38.4062 355.047 38.375C354.984 38.3125 354.922 38.25 354.859 38.1875C354.797 38.125 354.766 38.0312 354.766 37.9062C354.672 37.875 354.578 37.8438 354.484 37.8125C354.422 37.7812 354.359 37.7656 354.297 37.7656C353.484 37.3594 352.625 37.0156 351.719 36.7344C350.812 36.4531 350.047 36.1406 349.422 35.7969C349.047 36.0469 348.672 36.1094 348.297 35.9844C347.922 35.8594 347.469 35.7344 346.938 35.6094C345.625 35.5469 344.375 35.4219 343.188 35.2344C342.031 35.0469 340.906 34.7188 339.812 34.25C339.75 34.0625 339.672 33.9062 339.578 33.7812C339.484 33.625 339.266 33.5781 338.922 33.6406C338.703 33.3281 338.469 33.0469 338.219 32.7969C338 32.5156 337.797 32.2031 337.609 31.8594ZM366.893 53.5625C366.456 53.2812 366.112 52.9219 365.862 52.4844C365.581 52.0469 365.362 51.5781 365.206 51.0781C365.018 50.5781 364.878 50.0625 364.784 49.5312C364.659 48.9688 364.534 48.4375 364.409 47.9375C364.409 47.5 364.503 47.1875 364.69 47C364.878 46.7812 365.081 46.5781 365.299 46.3906C366.049 46.3594 366.721 46.2969 367.315 46.2031C367.909 46.1094 368.487 46.0156 369.049 45.9219C369.612 45.8281 370.174 45.75 370.737 45.6875C371.299 45.5938 371.909 45.5469 372.565 45.5469C373.034 44.5781 373.471 43.6562 373.878 42.7812C374.284 41.875 374.674 41.0156 375.049 40.2031C375.237 39.4219 375.471 38.7031 375.753 38.0469C376.065 37.3594 376.362 36.7188 376.643 36.125C376.924 35.5 377.174 34.8906 377.393 34.2969C377.612 33.6719 377.753 33.0156 377.815 32.3281C378.19 31.2344 378.518 30.2344 378.799 29.3281C379.112 28.3906 379.346 27.2812 379.503 26C378.315 26.1875 377.362 26.375 376.643 26.5625C375.924 26.7188 375.409 26.875 375.096 27.0312C374.471 27 373.971 26.875 373.596 26.6562C373.253 26.4375 372.971 26.1719 372.753 25.8594C372.534 25.5469 372.346 25.1875 372.19 24.7812C372.034 24.375 371.846 23.9531 371.628 23.5156C371.753 23.2344 371.784 22.8281 371.721 22.2969C371.659 21.7344 371.471 21.3281 371.159 21.0781C371.409 21.0156 371.596 20.8125 371.721 20.4688C371.846 20.0938 371.862 19.8125 371.768 19.625C372.299 19.4688 372.862 19.375 373.456 19.3438C374.049 19.2812 374.628 19.2344 375.19 19.2031C375.784 19.1406 376.346 19.0781 376.878 19.0156C377.409 18.9219 377.862 18.75 378.237 18.5C379.862 18.4375 381.549 18.375 383.299 18.3125C385.081 18.25 386.721 18.1719 388.221 18.0781C388.784 18.2656 389.424 18.3594 390.143 18.3594C390.893 18.3594 391.628 18.4062 392.346 18.5C393.096 18.5938 393.753 18.7969 394.315 19.1094C394.909 19.4219 395.315 19.9688 395.534 20.75C396.003 20.8125 396.346 20.9375 396.565 21.125C396.815 21.3125 396.971 21.5469 397.034 21.8281C397.096 22.0781 397.112 22.375 397.081 22.7188C397.081 23.0312 397.081 23.3438 397.081 23.6562C396.581 24.0312 395.94 24.3438 395.159 24.5938C394.409 24.8125 393.581 25 392.674 25.1562C391.768 25.2812 390.815 25.375 389.815 25.4375C388.846 25.4688 387.893 25.5 386.956 25.5312C386.799 26.5625 386.518 27.7812 386.112 29.1875C385.737 30.5625 385.346 31.9219 384.94 33.2656C384.534 34.5781 384.174 35.7656 383.862 36.8281C383.581 37.8594 383.456 38.5312 383.487 38.8438C383.174 39.5625 382.909 40.1719 382.69 40.6719C382.503 41.1719 382.315 41.6406 382.128 42.0781C381.971 42.5156 381.799 42.9531 381.612 43.3906C381.456 43.7969 381.253 44.2656 381.003 44.7969H384.19C384.253 45.1406 384.393 45.375 384.612 45.5C384.831 45.625 385.065 45.7344 385.315 45.8281C385.565 45.9219 385.784 46.0469 385.971 46.2031C386.19 46.3281 386.299 46.5469 386.299 46.8594C386.893 47.0156 387.268 47.25 387.424 47.5625C387.581 47.875 387.612 48.2188 387.518 48.5938C387.456 48.9375 387.299 49.2969 387.049 49.6719C386.831 50.0469 386.612 50.375 386.393 50.6562C386.112 50.5938 385.846 50.6719 385.596 50.8906C385.346 51.0781 385.112 51.2969 384.893 51.5469C383.987 51.4219 383.096 51.4062 382.221 51.5C381.346 51.5938 380.534 51.6719 379.784 51.7344C379.628 51.7656 379.565 51.8594 379.596 52.0156C379.628 52.1406 379.596 52.2344 379.503 52.2969C378.534 51.9844 377.534 51.8594 376.503 51.9219C375.503 51.9844 374.471 52.1406 373.409 52.3906C372.378 52.6094 371.315 52.8438 370.221 53.0938C369.128 53.375 368.018 53.5312 366.893 53.5625ZM396.88 53.5156C395.974 53.2969 395.271 52.9375 394.771 52.4375C394.302 51.9062 393.943 51.2969 393.693 50.6094C393.474 49.8906 393.318 49.1094 393.224 48.2656C393.161 47.4219 393.083 46.5469 392.989 45.6406C393.114 45.2344 393.271 44.8906 393.458 44.6094C393.677 44.3281 393.771 43.9375 393.739 43.4375C394.083 42.4375 394.396 41.4688 394.677 40.5312C394.958 39.5938 395.146 38.625 395.239 37.625C395.427 37.3438 395.614 37.1562 395.802 37.0625C396.052 35.2812 396.083 33.4531 395.896 31.5781C395.708 29.7031 395.396 27.9688 394.958 26.375C394.989 26.0312 395.036 25.7812 395.099 25.625C395.161 25.4375 395.161 25.2812 395.099 25.1562C395.036 24.875 395.13 24.7344 395.38 24.7344C395.63 24.7344 395.88 24.7344 396.13 24.7344C396.13 24.1719 396.021 23.625 395.802 23.0938C395.614 22.5312 395.427 21.8906 395.239 21.1719C395.489 20.6094 395.661 20.0625 395.755 19.5312C395.849 19 396.021 18.5156 396.271 18.0781C397.271 18.3906 398.255 18.75 399.224 19.1562C400.193 19.5625 401.146 19.9688 402.083 20.375C403.021 20.75 403.943 21.125 404.849 21.5C405.755 21.8438 406.646 22.125 407.521 22.3438C408.864 23.3125 410.239 24.2812 411.646 25.25C413.083 26.1875 414.38 27.2344 415.536 28.3906C416.724 29.5156 417.708 30.8125 418.489 32.2812C419.271 33.75 419.724 35.4844 419.849 37.4844C419.786 37.6719 419.739 37.8281 419.708 37.9531C419.677 38.0781 419.646 38.2031 419.614 38.3281C419.583 38.4531 419.568 38.5938 419.568 38.75C419.568 38.9062 419.568 39.125 419.568 39.4062C418.443 41.375 417.021 43.0312 415.302 44.375C413.583 45.7188 411.708 46.9062 409.677 47.9375C407.646 48.9688 405.521 49.9219 403.302 50.7969C401.114 51.6406 398.974 52.5469 396.88 53.5156ZM401.474 26.9375C401.193 26.9375 400.989 27 400.864 27.125C401.239 28.5312 401.521 29.8594 401.708 31.1094C401.896 32.3594 401.989 33.6094 401.989 34.8594C402.021 36.1094 401.958 37.3906 401.802 38.7031C401.646 40.0156 401.427 41.4375 401.146 42.9688C401.552 42.9375 401.911 42.8594 402.224 42.7344C402.536 42.6094 402.849 42.4688 403.161 42.3125C403.505 42.1562 403.849 42.0156 404.193 41.8906C404.568 41.7656 404.989 41.6875 405.458 41.6562C405.583 41.4062 405.739 41.2188 405.927 41.0938C406.146 40.9375 406.333 40.7812 406.489 40.625C407.271 40.3125 408.052 39.9844 408.833 39.6406C409.614 39.2969 410.333 38.9062 410.989 38.4688C411.646 38.0312 412.239 37.5312 412.771 36.9688C413.302 36.4062 413.739 35.7344 414.083 34.9531C413.833 34.4844 413.521 34.0938 413.146 33.7812C412.802 33.4375 412.427 33.1094 412.021 32.7969C411.646 32.4531 411.271 32.1094 410.896 31.7656C410.552 31.3906 410.271 30.9688 410.052 30.5C409.552 30.4375 409.114 30.3125 408.739 30.125C408.364 29.9062 408.005 29.7031 407.661 29.5156C407.318 29.2969 406.943 29.0938 406.536 28.9062C406.161 28.7188 405.708 28.6094 405.177 28.5781C404.364 28.1406 403.63 27.8438 402.974 27.6875C402.318 27.5 401.818 27.25 401.474 26.9375ZM422.695 51.4062C422.601 51.4375 422.539 51.4062 422.507 51.3125C422.476 51.2188 422.461 51.125 422.461 51.0312C422.492 50.9375 422.539 50.8594 422.601 50.7969C422.695 50.7344 422.804 50.7344 422.929 50.7969C422.523 50.2969 422.257 49.8438 422.132 49.4375C422.039 49.0312 421.836 48.5312 421.523 47.9375C421.617 47.8438 421.679 47.7188 421.711 47.5625C421.742 47.375 421.789 47.2031 421.851 47.0469C421.882 46.8906 421.929 46.7812 421.992 46.7188C422.086 46.625 422.195 46.6406 422.32 46.7656C422.257 46.4219 422.257 46.1406 422.32 45.9219C422.382 45.7031 422.445 45.5 422.507 45.3125C422.601 45.125 422.664 44.9375 422.695 44.75C422.726 44.5625 422.679 44.3438 422.554 44.0938C423.148 43.2812 423.539 42.4062 423.726 41.4688C423.914 40.5 424.023 39.625 424.054 38.8438C424.336 38.5625 424.57 38.1875 424.757 37.7188C424.976 37.25 425.132 36.7656 425.226 36.2656C425.32 35.7656 425.367 35.2812 425.367 34.8125C425.367 34.3125 425.304 33.9219 425.179 33.6406C425.211 33.5156 425.273 33.4531 425.367 33.4531C425.492 33.4219 425.632 33.4219 425.789 33.4531C426.007 32.2031 426.148 30.8125 426.211 29.2812C426.304 27.75 426.461 26.2812 426.679 24.875C426.929 23.4375 427.32 22.1875 427.851 21.125C428.382 20.0312 429.226 19.3281 430.382 19.0156C430.601 19.7969 430.882 20.4844 431.226 21.0781C431.601 21.6719 431.992 22.25 432.398 22.8125C432.836 23.375 433.273 23.9375 433.711 24.5C434.148 25.0625 434.554 25.6875 434.929 26.375C434.898 27.0938 434.82 27.9219 434.695 28.8594C434.601 29.7969 434.461 30.75 434.273 31.7188C434.117 32.6875 433.945 33.625 433.757 34.5312C433.601 35.4375 433.445 36.2031 433.289 36.8281C433.32 36.9844 433.429 37.0938 433.617 37.1562C433.804 37.1875 433.836 37.3594 433.711 37.6719C434.617 37.4531 435.554 37.25 436.523 37.0625C437.523 36.8438 438.492 36.6406 439.429 36.4531C440.398 36.2344 441.336 35.9844 442.242 35.7031C443.179 35.4219 444.054 35.0781 444.867 34.6719C445.054 33.1719 445.289 31.6875 445.57 30.2188C445.851 28.75 445.882 27.2656 445.664 25.7656C445.851 25.6094 446.007 25.4219 446.132 25.2031C446.257 24.9844 446.445 24.8438 446.695 24.7812C446.507 24.0625 446.429 23.3125 446.461 22.5312C446.492 21.7188 446.617 20.9688 446.836 20.2812C447.086 19.5938 447.445 19 447.914 18.5C448.382 17.9688 448.961 17.625 449.648 17.4688C450.054 18.0625 450.414 18.7031 450.726 19.3906C451.039 20.0781 451.351 20.7812 451.664 21.5C451.976 22.1875 452.304 22.8438 452.648 23.4688C453.023 24.0938 453.492 24.625 454.054 25.0625C454.148 26.1562 454.226 27.2812 454.289 28.4375C454.351 29.5625 454.398 30.7344 454.429 31.9531C454.148 33.3594 453.82 34.7344 453.445 36.0781C453.101 37.3906 452.851 38.7969 452.695 40.2969C452.445 40.5781 452.242 40.9219 452.086 41.3281C451.929 41.7031 451.773 42.0938 451.617 42.5C451.492 42.875 451.336 43.25 451.148 43.625C450.961 44 450.726 44.3125 450.445 44.5625C450.57 45 450.586 45.4219 450.492 45.8281C450.429 46.2031 450.539 46.6562 450.82 47.1875C450.882 48.1562 450.757 48.9688 450.445 49.625C450.164 50.25 449.757 50.7969 449.226 51.2656C448.726 51.7031 448.132 52.0625 447.445 52.3438C446.789 52.5938 446.132 52.8281 445.476 53.0469C445.164 52.8594 444.867 52.6719 444.586 52.4844C444.336 52.2656 444.023 52.1094 443.648 52.0156L443.882 51.5938C443.257 50.9688 442.711 50.3125 442.242 49.625C441.804 48.9062 441.601 48.0938 441.632 47.1875C441.632 47.1562 441.664 46.9531 441.726 46.5781C441.789 46.1719 441.851 45.75 441.914 45.3125C442.007 44.875 442.086 44.4688 442.148 44.0938C442.242 43.6875 442.289 43.4688 442.289 43.4375C441.414 43.5312 440.507 43.7344 439.57 44.0469C438.632 44.3594 437.711 44.7188 436.804 45.125C435.929 45.5 435.101 45.9062 434.32 46.3438C433.57 46.75 432.961 47.0938 432.492 47.375C432.492 47.4688 432.414 47.7344 432.257 48.1719C432.101 48.6094 431.914 49.0781 431.695 49.5781C431.476 50.0469 431.226 50.4688 430.945 50.8438C430.695 51.2188 430.429 51.3906 430.148 51.3594C430.211 51.5156 430.273 51.6406 430.336 51.7344C430.398 51.7969 430.398 51.9375 430.336 52.1562C429.804 52.3125 429.32 52.5156 428.882 52.7656C428.476 53.0156 428.054 53.2188 427.617 53.375C427.179 53.5625 426.695 53.6406 426.164 53.6094C425.664 53.6094 425.054 53.4219 424.336 53.0469C424.336 52.8281 424.242 52.6406 424.054 52.4844C423.867 52.2969 423.664 52.1406 423.445 52.0156C423.257 51.8906 423.086 51.7812 422.929 51.6875C422.773 51.5938 422.695 51.5 422.695 51.4062ZM455.588 48.5469L456.198 48.0781L456.244 47.0938C457.026 45.1875 457.823 43.3594 458.635 41.6094C459.479 39.8594 460.354 38.0625 461.26 36.2188C461.541 35.625 461.823 35.0312 462.104 34.4375C462.416 33.8438 462.713 33.2344 462.994 32.6094C462.963 32.4844 462.948 32.3594 462.948 32.2344C462.948 32.0781 462.979 31.9062 463.041 31.7188C463.479 31.0938 463.823 30.5312 464.073 30.0312C464.354 29.5312 464.619 29.0156 464.869 28.4844C465.151 27.8594 465.448 27.2344 465.76 26.6094C466.104 25.9844 466.526 25.375 467.026 24.7812L467.354 24.3125L467.869 24.3594C467.994 24.2969 468.119 24.25 468.244 24.2188C468.401 24.1562 468.588 24.125 468.807 24.125L469.651 24.2656C470.682 23.7969 471.588 23.125 472.369 22.25C473.182 21.3438 473.994 20.2656 474.807 19.0156L475.369 18.2188L476.119 18.6875C476.276 18.7812 476.526 18.875 476.869 18.9688C477.213 19.0625 477.573 19.1719 477.948 19.2969C478.604 19.4531 479.244 19.6406 479.869 19.8594C480.494 20.0469 480.979 20.3125 481.323 20.6562L481.557 21.0781C481.619 21.4219 481.666 21.7344 481.698 22.0156C481.76 22.2969 481.823 22.5781 481.885 22.8594C482.01 23.5156 482.119 24.1719 482.213 24.8281C482.307 25.4531 482.369 26.1562 482.401 26.9375C482.557 27.5625 482.698 28.2031 482.823 28.8594C482.979 29.4844 483.119 30.1094 483.244 30.7344C483.401 31.6406 483.573 32.5156 483.76 33.3594C483.948 34.1719 484.198 34.9531 484.51 35.7031C484.823 35.7031 485.01 35.7188 485.073 35.75C485.448 35.5938 485.885 35.5 486.385 35.4688L486.994 35.4219L487.182 35.9844C487.244 36.0781 487.323 36.1719 487.416 36.2656C487.51 36.3594 487.619 36.4531 487.744 36.5469C488.244 36.5781 488.604 36.6875 488.823 36.875C489.073 37.0312 489.276 37.1875 489.432 37.3438C489.494 37.4062 489.573 37.4844 489.666 37.5781C489.76 37.6406 489.838 37.6875 489.901 37.7188L490.744 38.0469L490.276 38.9375C489.932 39.5938 489.401 40.2344 488.682 40.8594C487.994 41.4844 487.213 42 486.338 42.4062C486.401 42.625 486.432 42.8281 486.432 43.0156C486.463 43.2031 486.51 43.4219 486.573 43.6719C486.698 44.2969 486.791 44.9531 486.854 45.6406C486.948 46.2969 486.948 46.9844 486.854 47.7031C486.541 48.5156 486.166 49.25 485.729 49.9062C485.323 50.5312 484.823 51.1094 484.229 51.6406C483.666 52.1406 483.026 52.5625 482.307 52.9062C481.588 53.2188 480.838 53.3906 480.057 53.4219C479.619 53.3281 479.291 53.2188 479.073 53.0938C478.885 52.9688 478.713 52.8438 478.557 52.7188C478.307 52.5312 478.104 52.4062 477.948 52.3438L477.338 52.0625L477.526 51.3594C477.619 51.1094 477.604 50.8906 477.479 50.7031C477.385 50.5156 477.166 50.2656 476.823 49.9531C476.698 49.8594 476.588 49.7656 476.494 49.6719C476.401 49.5469 476.291 49.4219 476.166 49.2969L475.229 48.2188L476.776 47.7969C477.713 47.5469 478.338 47.2344 478.651 46.8594C478.963 46.4531 479.088 45.75 479.026 44.75C478.244 44.5938 477.604 44.5781 477.104 44.7031C476.604 44.7969 476.104 44.9062 475.604 45.0312C474.885 45.2188 474.182 45.3906 473.494 45.5469C472.807 45.6719 472.057 45.7344 471.244 45.7344C470.713 45.7344 470.151 45.6875 469.557 45.5938L469.041 45.5469L468.901 45.0312C468.901 44.9688 468.854 44.9062 468.76 44.8438C468.698 44.75 468.635 44.6719 468.573 44.6094C468.416 44.4219 468.229 44.1719 468.01 43.8594C467.791 43.5469 467.744 43.1562 467.869 42.6875C467.651 42.3438 467.526 41.9844 467.494 41.6094C467.369 41.8594 467.26 42.1094 467.166 42.3594C467.104 42.5781 467.041 42.7969 466.979 43.0156L466.791 43.625L466.182 43.7188C466.119 43.7812 466.057 43.875 465.994 44C465.963 44.125 465.963 44.2188 465.994 44.2812L466.182 44.7969L465.713 45.2188C465.651 45.3125 465.573 45.3906 465.479 45.4531C465.385 45.5156 465.307 45.5781 465.244 45.6406C465.182 45.9844 465.088 46.3125 464.963 46.625C464.869 46.9375 464.76 47.25 464.635 47.5625C464.479 48.0625 464.323 48.5469 464.166 49.0156C464.041 49.4844 463.979 49.9531 463.979 50.4219L463.791 51.0312C463.635 51.2812 463.432 51.4688 463.182 51.5938C462.963 51.7188 462.744 51.8281 462.526 51.9219C462.213 52.0469 461.994 52.1719 461.869 52.2969L461.729 52.9062L461.026 53C460.619 53.0938 460.323 53.1562 460.135 53.1875C459.979 53.2188 459.791 53.2344 459.573 53.2344L458.963 53.1875C458.588 52.8125 458.276 52.5312 458.026 52.3438C457.807 52.125 457.541 51.9375 457.229 51.7812L456.948 51.4062C456.823 51.1562 456.744 50.9375 456.713 50.75C456.682 50.5312 456.635 50.3125 456.573 50.0938C456.51 49.6875 456.416 49.4062 456.291 49.25L455.588 48.5469ZM470.541 36.3594C470.104 36.9844 469.682 37.6406 469.276 38.3281C469.494 38.2969 469.698 38.2812 469.885 38.2812C470.104 38.2812 470.323 38.2656 470.541 38.2344C471.635 38.1719 472.651 38.0938 473.588 38C474.526 37.9062 475.541 37.75 476.635 37.5312C476.385 36.375 476.104 35.2031 475.791 34.0156C475.51 32.7969 475.198 31.5781 474.854 30.3594L474.619 30.8281C473.838 31.6719 473.088 32.5781 472.369 33.5469C471.651 34.5156 471.057 35.4375 470.588 36.3125L470.541 36.3594ZM493.262 48.9688C493.106 49 492.966 48.8906 492.841 48.6406C492.716 48.3594 492.575 48.0938 492.419 47.8438H492.934C492.716 47.1562 492.653 46.5312 492.747 45.9688C492.872 45.375 493.012 44.8125 493.169 44.2812C493.325 43.7188 493.45 43.1875 493.544 42.6875C493.669 42.1562 493.622 41.6094 493.403 41.0469C493.559 41.1406 493.669 41.1094 493.731 40.9531C493.825 40.7656 493.887 40.5469 493.919 40.2969C493.981 40.0156 493.997 39.7344 493.966 39.4531C493.966 39.1406 493.95 38.8906 493.919 38.7031C494.325 37.7344 494.637 36.7344 494.856 35.7031C495.106 34.6719 495.325 33.6562 495.512 32.6562C495.7 31.625 495.903 30.6406 496.122 29.7031C496.372 28.7344 496.684 27.8281 497.059 26.9844C497.497 26.9219 497.95 26.9844 498.419 27.1719C498.919 27.3281 499.247 27.5312 499.403 27.7812C500.372 27.0312 501.231 26.125 501.981 25.0625C502.731 24 503.481 22.9688 504.231 21.9688C505.012 20.9375 505.887 20.0312 506.856 19.25C507.825 18.4688 509.028 18 510.466 17.8438C511.216 18.375 512.059 18.9531 512.997 19.5781C513.934 20.1719 514.7 20.9219 515.294 21.8281C515.544 21.9844 515.778 22.1562 515.997 22.3438C516.247 22.5 516.497 22.6562 516.747 22.8125V23.5156C517.184 23.9219 517.544 24.4062 517.825 24.9688C518.137 25.5 518.403 26.0781 518.622 26.7031C518.872 27.2969 519.106 27.9062 519.325 28.5312C519.544 29.1562 519.794 29.7344 520.075 30.2656C520.012 30.4531 519.981 30.625 519.981 30.7812C520.012 30.9062 520.044 31.0469 520.075 31.2031C520.137 31.3281 520.184 31.4844 520.216 31.6719C520.247 31.8281 520.262 32.0312 520.262 32.2812C520.137 33.9375 519.591 35.2812 518.622 36.3125C517.684 37.3125 516.528 38.1406 515.153 38.7969C513.809 39.4219 512.372 39.9688 510.841 40.4375C509.309 40.875 507.919 41.3594 506.669 41.8906C506.669 42.0156 506.731 42.0781 506.856 42.0781C507.012 42.0781 507.059 42.1719 506.997 42.3594C507.934 42.9219 508.653 43.375 509.153 43.7188C509.684 44.0625 510.169 44.3594 510.606 44.6094C511.075 44.8281 511.575 45.0156 512.106 45.1719C512.669 45.3281 513.434 45.5156 514.403 45.7344C515.372 45.9531 516.122 46.1406 516.653 46.2969C517.216 46.4219 517.716 46.5312 518.153 46.625C518.591 46.6875 519.059 46.75 519.559 46.8125C520.059 46.875 520.731 46.9531 521.575 47.0469C521.919 47.3906 522.2 47.7969 522.419 48.2656C522.637 48.7344 522.794 49.2031 522.887 49.6719C522.981 50.1406 522.997 50.5938 522.934 51.0312C522.903 51.4375 522.778 51.7656 522.559 52.0156C522.591 52.1406 522.669 52.2031 522.794 52.2031C522.95 52.1719 523.106 52.1719 523.262 52.2031C523.044 52.3594 522.856 52.5469 522.7 52.7656C522.544 52.9844 522.387 53.2031 522.231 53.4219C522.075 53.6406 521.887 53.8438 521.669 54.0312C521.481 54.2188 521.231 54.3281 520.919 54.3594C519.794 54.7969 518.356 54.8125 516.606 54.4062C514.856 54 512.622 53.2812 509.903 52.25C508.559 51.75 507.466 51.2969 506.622 50.8906C505.778 50.4844 505.044 50.0938 504.419 49.7188C503.794 49.3125 503.216 48.8906 502.684 48.4531C502.153 47.9844 501.544 47.4375 500.856 46.8125C500.762 46.8438 500.7 46.9062 500.669 47C500.669 47.0938 500.622 47.1562 500.528 47.1875C500.372 48.4375 500.122 49.4531 499.778 50.2344C499.466 51.0156 498.997 51.8125 498.372 52.625C497.872 52.5312 497.528 52.5781 497.341 52.7656C497.184 52.9531 496.981 53.125 496.731 53.2812C496.419 53.3438 496.184 53.3281 496.028 53.2344C495.872 53.1719 495.731 53.0938 495.606 53C495.481 52.9062 495.341 52.8125 495.184 52.7188C495.028 52.625 494.778 52.5938 494.434 52.625C494.341 52.3438 494.247 52.0781 494.153 51.8281C494.059 51.5469 493.809 51.4219 493.403 51.4531C493.497 51.1719 493.528 50.9375 493.497 50.75C493.466 50.5312 493.419 50.3438 493.356 50.1875C493.294 50 493.231 49.8125 493.169 49.625C493.137 49.4375 493.169 49.2188 493.262 48.9688ZM508.919 27.5469C508.512 28.1406 508.059 28.6875 507.559 29.1875C507.059 29.6562 506.559 30.1562 506.059 30.6875C505.591 31.1875 505.169 31.75 504.794 32.375C504.419 32.9688 504.153 33.6875 503.997 34.5312C505.309 34.375 506.684 34.0156 508.122 33.4531C509.559 32.8594 510.919 32.2969 512.2 31.7656C512.044 30.6094 511.637 29.6875 510.981 29C510.325 28.2812 509.637 27.7969 508.919 27.5469ZM523.999 26.5625C523.968 26.3125 523.906 26.0938 523.812 25.9062C523.749 25.6875 523.671 25.4531 523.577 25.2031C523.421 24.8281 523.281 24.4219 523.156 23.9844C523.031 23.5469 522.968 23.0312 522.968 22.4375C523.031 22.125 523.109 21.9062 523.202 21.7812C523.296 21.625 523.39 21.5 523.484 21.4062L523.671 20.5625H524.374C524.624 20.5938 524.874 20.6094 525.124 20.6094C525.406 20.6094 525.671 20.6094 525.921 20.6094C527.109 20.6094 528.327 20.5625 529.577 20.4688C530.827 20.375 532.109 20.2656 533.421 20.1406C534.859 19.9531 536.406 19.8125 538.062 19.7188C538.218 19.375 538.312 19.1562 538.343 19.0625C538.406 18.9688 538.468 18.8594 538.531 18.7344L539.046 18.4531C539.765 18.4219 540.265 18.5156 540.546 18.7344C540.827 18.9219 541.046 19.1094 541.202 19.2969C542.015 19.2344 542.843 19.1562 543.687 19.0625C544.531 18.9375 545.406 18.8125 546.312 18.6875C547.562 18.5312 548.827 18.375 550.109 18.2188C551.39 18.0625 552.64 17.9844 553.859 17.9844C554.39 17.9844 554.89 18 555.359 18.0312C555.827 18.0625 556.281 18.1094 556.718 18.1719L557.281 18.5938C557.406 18.8125 557.562 19.0156 557.749 19.2031C557.937 19.3906 558.156 19.5781 558.406 19.7656C558.874 20.1406 559.327 20.6094 559.765 21.1719C560.234 21.7344 560.406 22.5625 560.281 23.6562L560.046 24.125C559.921 24.25 559.765 24.375 559.577 24.5L559.109 25.1094H558.593C558.281 25.1094 558.046 25.1406 557.89 25.2031C557.734 25.2344 557.546 25.2969 557.327 25.3906C557.202 25.4531 557.062 25.5156 556.906 25.5781C556.749 25.6094 556.577 25.6562 556.39 25.7188C556.046 25.6875 555.781 25.6719 555.593 25.6719C555.406 25.6719 555.187 25.6719 554.937 25.6719C553.999 25.6719 552.984 25.7344 551.89 25.8594C550.796 25.9844 549.734 26.125 548.702 26.2812C547.952 26.375 547.234 26.4688 546.546 26.5625C545.859 26.625 545.234 26.6875 544.671 26.75C544.359 27.5625 544.077 28.2812 543.827 28.9062C543.577 29.5312 543.312 30.1562 543.031 30.7812C542.749 31.4062 542.484 32.0469 542.234 32.7031C541.984 33.3281 541.749 34.0312 541.531 34.8125C541.156 35.375 540.843 35.9219 540.593 36.4531C540.343 36.9531 540.14 37.5312 539.984 38.1875C539.515 38.7188 539.171 39.2969 538.952 39.9219C538.765 40.5469 538.593 41.0781 538.437 41.5156L538.249 42.2188C538.031 42.4375 537.89 42.6094 537.827 42.7344C537.796 42.8594 537.718 43 537.593 43.1562C537.499 43.5625 537.374 43.9531 537.218 44.3281C537.156 44.4844 537.093 44.6562 537.031 44.8438C536.968 45 536.952 45.125 536.984 45.2188C536.921 45.5625 536.827 45.8281 536.702 46.0156C536.702 46.2031 536.687 46.3906 536.656 46.5781C536.624 46.7656 536.593 46.9531 536.562 47.1406C536.499 47.3594 536.452 47.5625 536.421 47.75C536.39 47.9062 536.406 48.0625 536.468 48.2188C536.562 48.3438 536.656 48.4688 536.749 48.5938C536.843 48.7188 536.921 48.875 536.984 49.0625C537.046 49.125 537.124 49.1719 537.218 49.2031C537.312 49.2344 537.39 49.2812 537.452 49.3438C537.702 49.5625 537.937 49.6875 538.156 49.7188L538.624 50.2812C538.812 51.4062 538.64 52.2812 538.109 52.9062C537.546 53.625 536.609 53.9844 535.296 53.9844L534.64 53.9375C534.421 53.7188 534.296 53.5781 534.265 53.5156C533.984 53.3906 533.749 53.2812 533.562 53.1875C533.374 53.125 533.202 52.9844 533.046 52.7656C532.984 52.7031 532.906 52.6719 532.812 52.6719C532.718 52.6406 532.64 52.5938 532.577 52.5312C532.265 52.4375 532.015 52.3281 531.827 52.2031L531.312 51.9219C531.343 51.6094 531.359 51.3906 531.359 51.2656C531.109 50.9219 530.906 50.5469 530.749 50.1406C530.624 49.7344 530.515 49.3125 530.421 48.875C530.327 48.5312 530.234 48.2188 530.14 47.9375C530.077 47.6562 529.968 47.4062 529.812 47.1875C529.749 45 529.952 43.1719 530.421 41.7031C530.89 40.2031 531.406 38.75 531.968 37.3438C532.281 36.5938 532.577 35.8281 532.859 35.0469C533.14 34.2656 533.39 33.4688 533.609 32.6562L534.124 32.1406C534.343 31.9531 534.484 31.8438 534.546 31.8125C534.546 31.4062 534.624 31.0156 534.781 30.6406C534.937 30.2344 535.109 29.8281 535.296 29.4219C535.421 29.1719 535.531 28.9219 535.624 28.6719C535.749 28.4219 535.827 28.2031 535.859 28.0156C535.64 28.0156 535.437 28.0312 535.249 28.0625C535.093 28.0625 534.921 28.0781 534.734 28.1094C534.327 28.2031 533.937 28.25 533.562 28.25C533.281 28.25 533.077 28.2344 532.952 28.2031C532.702 28.3281 532.468 28.4062 532.249 28.4375C532.031 28.4375 531.812 28.4375 531.593 28.4375H531.031H530.468C530.093 28.4375 529.796 28.4844 529.577 28.5781C529.14 28.5781 528.859 28.5781 528.734 28.5781C528.609 28.5781 528.468 28.5781 528.312 28.5781H527.749H527.187C526.937 28.5781 526.656 28.5625 526.343 28.5312C526.031 28.4688 525.702 28.3438 525.359 28.1562L525.031 27.7812C524.843 27.4375 524.671 27.25 524.515 27.2188L523.999 27.0781V26.5625ZM554.268 51.4062C554.174 51.4375 554.111 51.4062 554.08 51.3125C554.049 51.2188 554.033 51.125 554.033 51.0312C554.064 50.9375 554.111 50.8594 554.174 50.7969C554.268 50.7344 554.377 50.7344 554.502 50.7969C554.096 50.2969 553.83 49.8438 553.705 49.4375C553.611 49.0312 553.408 48.5312 553.096 47.9375C553.189 47.8438 553.252 47.7188 553.283 47.5625C553.314 47.375 553.361 47.2031 553.424 47.0469C553.455 46.8906 553.502 46.7812 553.564 46.7188C553.658 46.625 553.768 46.6406 553.893 46.7656C553.83 46.4219 553.83 46.1406 553.893 45.9219C553.955 45.7031 554.018 45.5 554.08 45.3125C554.174 45.125 554.236 44.9375 554.268 44.75C554.299 44.5625 554.252 44.3438 554.127 44.0938C554.721 43.2812 555.111 42.4062 555.299 41.4688C555.486 40.5 555.596 39.625 555.627 38.8438C555.908 38.5625 556.143 38.1875 556.33 37.7188C556.549 37.25 556.705 36.7656 556.799 36.2656C556.893 35.7656 556.939 35.2812 556.939 34.8125C556.939 34.3125 556.877 33.9219 556.752 33.6406C556.783 33.5156 556.846 33.4531 556.939 33.4531C557.064 33.4219 557.205 33.4219 557.361 33.4531C557.58 32.2031 557.721 30.8125 557.783 29.2812C557.877 27.75 558.033 26.2812 558.252 24.875C558.502 23.4375 558.893 22.1875 559.424 21.125C559.955 20.0312 560.799 19.3281 561.955 19.0156C562.174 19.7969 562.455 20.4844 562.799 21.0781C563.174 21.6719 563.564 22.25 563.971 22.8125C564.408 23.375 564.846 23.9375 565.283 24.5C565.721 25.0625 566.127 25.6875 566.502 26.375C566.471 27.0938 566.393 27.9219 566.268 28.8594C566.174 29.7969 566.033 30.75 565.846 31.7188C565.689 32.6875 565.518 33.625 565.33 34.5312C565.174 35.4375 565.018 36.2031 564.861 36.8281C564.893 36.9844 565.002 37.0938 565.189 37.1562C565.377 37.1875 565.408 37.3594 565.283 37.6719C566.189 37.4531 567.127 37.25 568.096 37.0625C569.096 36.8438 570.064 36.6406 571.002 36.4531C571.971 36.2344 572.908 35.9844 573.814 35.7031C574.752 35.4219 575.627 35.0781 576.439 34.6719C576.627 33.1719 576.861 31.6875 577.143 30.2188C577.424 28.75 577.455 27.2656 577.236 25.7656C577.424 25.6094 577.58 25.4219 577.705 25.2031C577.83 24.9844 578.018 24.8438 578.268 24.7812C578.08 24.0625 578.002 23.3125 578.033 22.5312C578.064 21.7188 578.189 20.9688 578.408 20.2812C578.658 19.5938 579.018 19 579.486 18.5C579.955 17.9688 580.533 17.625 581.221 17.4688C581.627 18.0625 581.986 18.7031 582.299 19.3906C582.611 20.0781 582.924 20.7812 583.236 21.5C583.549 22.1875 583.877 22.8438 584.221 23.4688C584.596 24.0938 585.064 24.625 585.627 25.0625C585.721 26.1562 585.799 27.2812 585.861 28.4375C585.924 29.5625 585.971 30.7344 586.002 31.9531C585.721 33.3594 585.393 34.7344 585.018 36.0781C584.674 37.3906 584.424 38.7969 584.268 40.2969C584.018 40.5781 583.814 40.9219 583.658 41.3281C583.502 41.7031 583.346 42.0938 583.189 42.5C583.064 42.875 582.908 43.25 582.721 43.625C582.533 44 582.299 44.3125 582.018 44.5625C582.143 45 582.158 45.4219 582.064 45.8281C582.002 46.2031 582.111 46.6562 582.393 47.1875C582.455 48.1562 582.33 48.9688 582.018 49.625C581.736 50.25 581.33 50.7969 580.799 51.2656C580.299 51.7031 579.705 52.0625 579.018 52.3438C578.361 52.5938 577.705 52.8281 577.049 53.0469C576.736 52.8594 576.439 52.6719 576.158 52.4844C575.908 52.2656 575.596 52.1094 575.221 52.0156L575.455 51.5938C574.83 50.9688 574.283 50.3125 573.814 49.625C573.377 48.9062 573.174 48.0938 573.205 47.1875C573.205 47.1562 573.236 46.9531 573.299 46.5781C573.361 46.1719 573.424 45.75 573.486 45.3125C573.58 44.875 573.658 44.4688 573.721 44.0938C573.814 43.6875 573.861 43.4688 573.861 43.4375C572.986 43.5312 572.08 43.7344 571.143 44.0469C570.205 44.3594 569.283 44.7188 568.377 45.125C567.502 45.5 566.674 45.9062 565.893 46.3438C565.143 46.75 564.533 47.0938 564.064 47.375C564.064 47.4688 563.986 47.7344 563.83 48.1719C563.674 48.6094 563.486 49.0781 563.268 49.5781C563.049 50.0469 562.799 50.4688 562.518 50.8438C562.268 51.2188 562.002 51.3906 561.721 51.3594C561.783 51.5156 561.846 51.6406 561.908 51.7344C561.971 51.7969 561.971 51.9375 561.908 52.1562C561.377 52.3125 560.893 52.5156 560.455 52.7656C560.049 53.0156 559.627 53.2188 559.189 53.375C558.752 53.5625 558.268 53.6406 557.736 53.6094C557.236 53.6094 556.627 53.4219 555.908 53.0469C555.908 52.8281 555.814 52.6406 555.627 52.4844C555.439 52.2969 555.236 52.1406 555.018 52.0156C554.83 51.8906 554.658 51.7812 554.502 51.6875C554.346 51.5938 554.268 51.5 554.268 51.4062ZM606.366 48.5469L606.976 48.0781L607.022 47.0938C607.804 45.1875 608.601 43.3594 609.413 41.6094C610.257 39.8594 611.132 38.0625 612.038 36.2188C612.319 35.625 612.601 35.0312 612.882 34.4375C613.194 33.8438 613.491 33.2344 613.772 32.6094C613.741 32.4844 613.726 32.3594 613.726 32.2344C613.726 32.0781 613.757 31.9062 613.819 31.7188C614.257 31.0938 614.601 30.5312 614.851 30.0312C615.132 29.5312 615.397 29.0156 615.647 28.4844C615.929 27.8594 616.226 27.2344 616.538 26.6094C616.882 25.9844 617.304 25.375 617.804 24.7812L618.132 24.3125L618.647 24.3594C618.772 24.2969 618.897 24.25 619.022 24.2188C619.179 24.1562 619.366 24.125 619.585 24.125L620.429 24.2656C621.46 23.7969 622.366 23.125 623.147 22.25C623.96 21.3438 624.772 20.2656 625.585 19.0156L626.147 18.2188L626.897 18.6875C627.054 18.7812 627.304 18.875 627.647 18.9688C627.991 19.0625 628.351 19.1719 628.726 19.2969C629.382 19.4531 630.022 19.6406 630.647 19.8594C631.272 20.0469 631.757 20.3125 632.101 20.6562L632.335 21.0781C632.397 21.4219 632.444 21.7344 632.476 22.0156C632.538 22.2969 632.601 22.5781 632.663 22.8594C632.788 23.5156 632.897 24.1719 632.991 24.8281C633.085 25.4531 633.147 26.1562 633.179 26.9375C633.335 27.5625 633.476 28.2031 633.601 28.8594C633.757 29.4844 633.897 30.1094 634.022 30.7344C634.179 31.6406 634.351 32.5156 634.538 33.3594C634.726 34.1719 634.976 34.9531 635.288 35.7031C635.601 35.7031 635.788 35.7188 635.851 35.75C636.226 35.5938 636.663 35.5 637.163 35.4688L637.772 35.4219L637.96 35.9844C638.022 36.0781 638.101 36.1719 638.194 36.2656C638.288 36.3594 638.397 36.4531 638.522 36.5469C639.022 36.5781 639.382 36.6875 639.601 36.875C639.851 37.0312 640.054 37.1875 640.21 37.3438C640.272 37.4062 640.351 37.4844 640.444 37.5781C640.538 37.6406 640.616 37.6875 640.679 37.7188L641.522 38.0469L641.054 38.9375C640.71 39.5938 640.179 40.2344 639.46 40.8594C638.772 41.4844 637.991 42 637.116 42.4062C637.179 42.625 637.21 42.8281 637.21 43.0156C637.241 43.2031 637.288 43.4219 637.351 43.6719C637.476 44.2969 637.569 44.9531 637.632 45.6406C637.726 46.2969 637.726 46.9844 637.632 47.7031C637.319 48.5156 636.944 49.25 636.507 49.9062C636.101 50.5312 635.601 51.1094 635.007 51.6406C634.444 52.1406 633.804 52.5625 633.085 52.9062C632.366 53.2188 631.616 53.3906 630.835 53.4219C630.397 53.3281 630.069 53.2188 629.851 53.0938C629.663 52.9688 629.491 52.8438 629.335 52.7188C629.085 52.5312 628.882 52.4062 628.726 52.3438L628.116 52.0625L628.304 51.3594C628.397 51.1094 628.382 50.8906 628.257 50.7031C628.163 50.5156 627.944 50.2656 627.601 49.9531C627.476 49.8594 627.366 49.7656 627.272 49.6719C627.179 49.5469 627.069 49.4219 626.944 49.2969L626.007 48.2188L627.554 47.7969C628.491 47.5469 629.116 47.2344 629.429 46.8594C629.741 46.4531 629.866 45.75 629.804 44.75C629.022 44.5938 628.382 44.5781 627.882 44.7031C627.382 44.7969 626.882 44.9062 626.382 45.0312C625.663 45.2188 624.96 45.3906 624.272 45.5469C623.585 45.6719 622.835 45.7344 622.022 45.7344C621.491 45.7344 620.929 45.6875 620.335 45.5938L619.819 45.5469L619.679 45.0312C619.679 44.9688 619.632 44.9062 619.538 44.8438C619.476 44.75 619.413 44.6719 619.351 44.6094C619.194 44.4219 619.007 44.1719 618.788 43.8594C618.569 43.5469 618.522 43.1562 618.647 42.6875C618.429 42.3438 618.304 41.9844 618.272 41.6094C618.147 41.8594 618.038 42.1094 617.944 42.3594C617.882 42.5781 617.819 42.7969 617.757 43.0156L617.569 43.625L616.96 43.7188C616.897 43.7812 616.835 43.875 616.772 44C616.741 44.125 616.741 44.2188 616.772 44.2812L616.96 44.7969L616.491 45.2188C616.429 45.3125 616.351 45.3906 616.257 45.4531C616.163 45.5156 616.085 45.5781 616.022 45.6406C615.96 45.9844 615.866 46.3125 615.741 46.625C615.647 46.9375 615.538 47.25 615.413 47.5625C615.257 48.0625 615.101 48.5469 614.944 49.0156C614.819 49.4844 614.757 49.9531 614.757 50.4219L614.569 51.0312C614.413 51.2812 614.21 51.4688 613.96 51.5938C613.741 51.7188 613.522 51.8281 613.304 51.9219C612.991 52.0469 612.772 52.1719 612.647 52.2969L612.507 52.9062L611.804 53C611.397 53.0938 611.101 53.1562 610.913 53.1875C610.757 53.2188 610.569 53.2344 610.351 53.2344L609.741 53.1875C609.366 52.8125 609.054 52.5312 608.804 52.3438C608.585 52.125 608.319 51.9375 608.007 51.7812L607.726 51.4062C607.601 51.1562 607.522 50.9375 607.491 50.75C607.46 50.5312 607.413 50.3125 607.351 50.0938C607.288 49.6875 607.194 49.4062 607.069 49.25L606.366 48.5469ZM621.319 36.3594C620.882 36.9844 620.46 37.6406 620.054 38.3281C620.272 38.2969 620.476 38.2812 620.663 38.2812C620.882 38.2812 621.101 38.2656 621.319 38.2344C622.413 38.1719 623.429 38.0938 624.366 38C625.304 37.9062 626.319 37.75 627.413 37.5312C627.163 36.375 626.882 35.2031 626.569 34.0156C626.288 32.7969 625.976 31.5781 625.632 30.3594L625.397 30.8281C624.616 31.6719 623.866 32.5781 623.147 33.5469C622.429 34.5156 621.835 35.4375 621.366 36.3125L621.319 36.3594ZM651.212 48.5938C650.9 48.8438 650.712 49.1719 650.65 49.5781C650.587 49.9531 650.509 50.3281 650.416 50.7031C650.322 51.0781 650.15 51.4062 649.9 51.6875C649.681 51.9375 649.275 52.0469 648.681 52.0156C648.556 52.1719 648.525 52.2656 648.587 52.2969C648.681 52.3281 648.759 52.4688 648.822 52.7188C648.384 52.6562 648.072 52.6875 647.884 52.8125C647.697 52.9375 647.462 53.0312 647.181 53.0938C646.462 52.875 645.853 52.4844 645.353 51.9219C644.884 51.3281 644.462 50.6875 644.087 50C643.744 49.3125 643.431 48.6094 643.15 47.8906C642.9 47.1719 642.634 46.5469 642.353 46.0156C642.353 45.8906 642.416 45.8438 642.541 45.875C642.634 45.875 642.728 45.875 642.822 45.875C642.666 45.5625 642.556 45.2188 642.494 44.8438C642.4 44.4375 642.244 44.1094 642.025 43.8594C642.931 41.9219 643.9 39.9062 644.931 37.8125C645.962 35.6875 646.994 33.5469 648.025 31.3906C649.087 29.2031 650.134 27.0156 651.166 24.8281C652.228 22.6094 653.244 20.4375 654.212 18.3125C655.087 18.625 655.931 19 656.744 19.4375C657.587 19.8438 658.353 20.3281 659.041 20.8906C659.728 21.4531 660.306 22.1094 660.775 22.8594C661.275 23.5781 661.603 24.4062 661.759 25.3438C661.697 25.5312 661.619 25.5938 661.525 25.5312C661.431 25.4688 661.353 25.5 661.291 25.625C661.447 25.8125 661.525 25.9531 661.525 26.0469C661.556 26.1094 661.556 26.1875 661.525 26.2812C661.494 26.3438 661.478 26.4375 661.478 26.5625C661.478 26.6875 661.556 26.8594 661.712 27.0781C661.556 27.0469 661.447 27.0781 661.384 27.1719C661.322 27.2344 661.212 27.2344 661.056 27.1719C661.212 27.6094 661.259 27.9531 661.197 28.2031C661.134 28.4531 661.041 28.6875 660.916 28.9062C660.791 29.0938 660.681 29.3125 660.587 29.5625C660.525 29.7812 660.556 30.0938 660.681 30.5C660.556 30.5 660.462 30.5312 660.4 30.5938C660.369 30.625 660.337 30.6719 660.306 30.7344C660.275 30.7969 660.228 30.8594 660.166 30.9219C660.134 30.9531 660.056 30.9531 659.931 30.9219C660.025 31.7344 660.056 32.5625 660.025 33.4062C659.994 34.2188 659.962 35.0625 659.931 35.9375C659.9 36.7812 659.9 37.6562 659.931 38.5625C659.962 39.4688 660.087 40.4062 660.306 41.375C661.65 40.5938 662.728 39.5781 663.541 38.3281C664.384 37.0781 665.041 35.6875 665.509 34.1562C666.009 32.625 666.384 30.9844 666.634 29.2344C666.916 27.4844 667.197 25.7031 667.478 23.8906C667.822 23.5469 668.087 23.125 668.275 22.625C668.494 22.125 668.666 21.6094 668.791 21.0781C668.947 20.5469 669.087 20.0156 669.212 19.4844C669.369 18.9219 669.572 18.4219 669.822 17.9844C670.384 18.0469 670.853 18.2188 671.228 18.5C671.634 18.75 672.009 19.0469 672.353 19.3906C672.697 19.7031 673.056 20 673.431 20.2812C673.806 20.5625 674.275 20.75 674.837 20.8438C675.275 21.4688 675.681 22.0781 676.056 22.6719C676.431 23.2344 676.681 23.875 676.806 24.5938C676.619 24.9062 676.478 25.25 676.384 25.625C676.291 26 676.181 26.375 676.056 26.75C675.962 27.125 675.822 27.4688 675.634 27.7812C675.447 28.0938 675.181 28.3594 674.837 28.5781C674.744 29.5156 674.603 30.3906 674.416 31.2031C674.228 32.0156 674.056 32.8125 673.9 33.5938C673.744 34.375 673.603 35.1875 673.478 36.0312C673.353 36.875 673.306 37.7969 673.337 38.7969C673.056 39.7031 672.744 40.6406 672.4 41.6094C672.056 42.5469 671.806 43.4219 671.65 44.2344C671.056 44.7031 670.587 45.2812 670.244 45.9688C669.9 46.6562 669.541 47.3438 669.166 48.0312C669.009 48.1562 668.916 48.1875 668.884 48.125C668.853 48.0312 668.712 47.9688 668.462 47.9375C668.494 48.2188 668.431 48.4062 668.275 48.5C668.15 48.5625 668.166 48.7812 668.322 49.1562C667.791 49.4062 667.322 49.7344 666.916 50.1406C666.509 50.5469 666.056 50.9219 665.556 51.2656C665.087 51.6094 664.525 51.8438 663.869 51.9688C663.244 52.0625 662.416 51.9219 661.384 51.5469C659.853 50.4219 658.478 49.125 657.259 47.6562C656.041 46.1875 655.072 44.4531 654.353 42.4531C654.041 42.5469 653.806 42.75 653.65 43.0625C653.494 43.375 653.353 43.7031 653.228 44.0469C653.103 44.3906 652.978 44.7031 652.853 44.9844C652.728 45.2656 652.541 45.4062 652.291 45.4062C652.228 45.6875 652.103 45.9531 651.916 46.2031C651.759 46.4219 651.603 46.6562 651.447 46.9062C651.291 47.125 651.166 47.375 651.072 47.6562C651.009 47.9375 651.056 48.25 651.212 48.5938ZM676.887 53.5625C676.449 53.2812 676.106 52.9219 675.856 52.4844C675.574 52.0469 675.356 51.5781 675.199 51.0781C675.012 50.5781 674.871 50.0625 674.777 49.5312C674.652 48.9688 674.527 48.4375 674.402 47.9375C674.402 47.5 674.496 47.1875 674.684 47C674.871 46.7812 675.074 46.5781 675.293 46.3906C676.043 46.3594 676.715 46.2969 677.309 46.2031C677.902 46.1094 678.481 46.0156 679.043 45.9219C679.606 45.8281 680.168 45.75 680.731 45.6875C681.293 45.5938 681.902 45.5469 682.559 45.5469C683.027 44.5781 683.465 43.6562 683.871 42.7812C684.277 41.875 684.668 41.0156 685.043 40.2031C685.231 39.4219 685.465 38.7031 685.746 38.0469C686.059 37.3594 686.356 36.7188 686.637 36.125C686.918 35.5 687.168 34.8906 687.387 34.2969C687.606 33.6719 687.746 33.0156 687.809 32.3281C688.184 31.2344 688.512 30.2344 688.793 29.3281C689.106 28.3906 689.34 27.2812 689.496 26C688.309 26.1875 687.356 26.375 686.637 26.5625C685.918 26.7188 685.402 26.875 685.09 27.0312C684.465 27 683.965 26.875 683.59 26.6562C683.246 26.4375 682.965 26.1719 682.746 25.8594C682.527 25.5469 682.34 25.1875 682.184 24.7812C682.027 24.375 681.84 23.9531 681.621 23.5156C681.746 23.2344 681.777 22.8281 681.715 22.2969C681.652 21.7344 681.465 21.3281 681.152 21.0781C681.402 21.0156 681.59 20.8125 681.715 20.4688C681.84 20.0938 681.856 19.8125 681.762 19.625C682.293 19.4688 682.856 19.375 683.449 19.3438C684.043 19.2812 684.621 19.2344 685.184 19.2031C685.777 19.1406 686.34 19.0781 686.871 19.0156C687.402 18.9219 687.856 18.75 688.231 18.5C689.856 18.4375 691.543 18.375 693.293 18.3125C695.074 18.25 696.715 18.1719 698.215 18.0781C698.777 18.2656 699.418 18.3594 700.137 18.3594C700.887 18.3594 701.621 18.4062 702.34 18.5C703.09 18.5938 703.746 18.7969 704.309 19.1094C704.902 19.4219 705.309 19.9688 705.527 20.75C705.996 20.8125 706.34 20.9375 706.559 21.125C706.809 21.3125 706.965 21.5469 707.027 21.8281C707.09 22.0781 707.106 22.375 707.074 22.7188C707.074 23.0312 707.074 23.3438 707.074 23.6562C706.574 24.0312 705.934 24.3438 705.152 24.5938C704.402 24.8125 703.574 25 702.668 25.1562C701.762 25.2812 700.809 25.375 699.809 25.4375C698.84 25.4688 697.887 25.5 696.949 25.5312C696.793 26.5625 696.512 27.7812 696.106 29.1875C695.731 30.5625 695.34 31.9219 694.934 33.2656C694.527 34.5781 694.168 35.7656 693.856 36.8281C693.574 37.8594 693.449 38.5312 693.481 38.8438C693.168 39.5625 692.902 40.1719 692.684 40.6719C692.496 41.1719 692.309 41.6406 692.121 42.0781C691.965 42.5156 691.793 42.9531 691.606 43.3906C691.449 43.7969 691.246 44.2656 690.996 44.7969H694.184C694.246 45.1406 694.387 45.375 694.606 45.5C694.824 45.625 695.059 45.7344 695.309 45.8281C695.559 45.9219 695.777 46.0469 695.965 46.2031C696.184 46.3281 696.293 46.5469 696.293 46.8594C696.887 47.0156 697.262 47.25 697.418 47.5625C697.574 47.875 697.606 48.2188 697.512 48.5938C697.449 48.9375 697.293 49.2969 697.043 49.6719C696.824 50.0469 696.606 50.375 696.387 50.6562C696.106 50.5938 695.84 50.6719 695.59 50.8906C695.34 51.0781 695.106 51.2969 694.887 51.5469C693.981 51.4219 693.09 51.4062 692.215 51.5C691.34 51.5938 690.527 51.6719 689.777 51.7344C689.621 51.7656 689.559 51.8594 689.59 52.0156C689.621 52.1406 689.59 52.2344 689.496 52.2969C688.527 51.9844 687.527 51.8594 686.496 51.9219C685.496 51.9844 684.465 52.1406 683.402 52.3906C682.371 52.6094 681.309 52.8438 680.215 53.0938C679.121 53.375 678.012 53.5312 676.887 53.5625ZM704.952 51.2656C704.827 51.1406 704.717 51 704.624 50.8438C704.53 50.6562 704.452 50.4219 704.389 50.1406C703.952 49.6094 703.608 49 703.358 48.3125C703.108 47.625 702.936 46.9219 702.842 46.2031C702.749 45.4531 702.733 44.7031 702.796 43.9531C702.858 43.2031 702.967 42.5 703.124 41.8438C703.217 41.5312 703.296 41.2031 703.358 40.8594C703.514 40.2656 703.671 39.6875 703.827 39.125C703.983 38.5312 704.217 38.0469 704.53 37.6719C704.405 37.3281 704.421 36.9531 704.577 36.5469C704.733 36.1406 704.889 35.7656 705.046 35.4219C705.108 35.3281 705.155 35.25 705.186 35.1875C705.217 35.0938 705.249 35.0156 705.28 34.9531C705.655 33.8594 706.014 32.8125 706.358 31.8125C706.733 30.7812 707.092 29.7969 707.436 28.8594C708.061 27.1406 708.655 25.4531 709.217 23.7969C709.811 22.1406 710.342 20.375 710.811 18.5C711.061 18.3125 711.28 18.1875 711.467 18.125C711.53 18.0938 711.608 18.0625 711.702 18.0312C711.796 18 711.905 17.9844 712.03 17.9844C712.686 18.3281 713.452 18.6562 714.327 18.9688C715.233 19.25 715.999 19.3906 716.624 19.3906L717.421 20.0938C717.827 20.5625 718.171 21.0625 718.452 21.5938C718.764 22.0938 718.858 22.75 718.733 23.5625C718.546 23.8438 718.389 24.0156 718.264 24.0781C718.077 24.7969 717.874 25.4375 717.655 26C717.436 26.5312 717.217 27.0469 716.999 27.5469C716.749 28.1094 716.514 28.6719 716.296 29.2344C716.077 29.7969 715.889 30.4844 715.733 31.2969C715.546 31.5156 715.421 31.7031 715.358 31.8594C715.327 32.0156 715.28 32.1719 715.217 32.3281C715.155 32.5156 715.077 32.7188 714.983 32.9375C714.889 33.125 714.749 33.2969 714.561 33.4531C714.436 34.4219 714.249 35.2188 713.999 35.8438C713.749 36.4375 713.499 37.0312 713.249 37.625C712.811 38.7188 712.405 39.8125 712.03 40.9062C711.655 41.9688 711.436 43.1875 711.374 44.5625C711.749 44.4688 712.092 44.4219 712.405 44.4219C712.811 44.4219 713.202 44.4844 713.577 44.6094C714.702 44.0469 715.921 43.7031 717.233 43.5781C718.577 43.4531 719.905 43.375 721.217 43.3438C722.311 43.3438 723.327 43.2969 724.264 43.2031C724.577 43.4219 724.78 43.5469 724.874 43.5781C724.967 43.5781 725.124 43.5781 725.342 43.5781C725.436 43.5781 725.53 43.5781 725.624 43.5781C725.717 43.5781 725.842 43.5938 725.999 43.625C726.436 44.0625 726.858 44.375 727.264 44.5625C727.671 44.7188 728.108 44.875 728.577 45.0312C728.983 45.1875 729.374 45.3594 729.749 45.5469C730.155 45.7031 730.546 45.9219 730.921 46.2031L731.342 48.5938C731.592 48.9375 731.702 49.1719 731.671 49.2969C731.671 49.5469 731.608 49.7656 731.483 49.9531L731.577 50.5625C730.983 50.6875 730.592 50.8281 730.405 50.9844C730.217 51.1094 730.014 51.2812 729.796 51.5C729.452 51.5312 729.124 51.5469 728.811 51.5469C728.186 51.5469 727.546 51.6406 726.889 51.8281C725.952 51.4844 724.921 51.3125 723.796 51.3125C723.358 51.3125 722.905 51.3281 722.436 51.3594C721.999 51.3906 721.561 51.4375 721.124 51.5C720.655 51.5625 720.186 51.625 719.717 51.6875C719.249 51.7188 718.78 51.7344 718.311 51.7344C717.936 51.7969 717.671 51.8438 717.514 51.875C717.358 51.9062 717.202 51.9531 717.046 52.0156C715.983 52.3594 714.827 52.7031 713.577 53.0469C712.358 53.3906 711.124 53.5625 709.874 53.5625C708.03 53.5625 706.546 53.0938 705.421 52.1562C705.296 51.875 705.202 51.6875 705.139 51.5938C705.077 51.5 705.014 51.3906 704.952 51.2656Z" fill="black"/>
</svg>
